<svg clip-rule="evenodd" fill-rule="evenodd" stroke-linejoin="round" stroke-miterlimit="2" viewBox="0 0 560 400" xmlns="http://www.w3.org/2000/svg"><g fill-rule="nonzero" transform="matrix(.12 0 0 .12 179.98 50)"><path d="m416.833 2500c230 0 416.667-186.67 416.667-416.67v-416.66h-416.667c-230 0-416.666 186.66-416.666 416.66s186.666 416.67 416.666 416.67z" fill="#0acf83"/><path d="m.167 1250c0-230 186.666-416.667 416.666-416.667h416.667v833.337h-416.667c-230 0-416.666-186.67-416.666-416.67z" fill="#a259ff"/><path d="m.167 416.667c0-230 186.666-416.667 416.666-416.667h416.667v833.333h-416.667c-230 0-416.666-186.666-416.666-416.666z" fill="#f24e1e"/><path d="m833.5 0h416.67c230 0 416.66 186.667 416.66 416.667s-186.66 416.666-416.66 416.666h-416.67z" fill="#ff7262"/><path d="m1666.83 1250c0 230-186.66 416.67-416.66 416.67s-416.67-186.67-416.67-416.67 186.67-416.667 416.67-416.667 416.66 186.667 416.66 416.667z" fill="#1abcfe"/></g></svg>